<svg xmlns="http://www.w3.org/2000/svg" width="1054" height="138" viewBox="0 0 1054 138" font-family="ui-monospace,SFMono-Regular,Menlo,monospace">
<rect fill="#f1f3ef" width="1054" height="138" rx="6"/>
<text x="18" y="26" fill="#121916" font-size="15" font-weight="700">ROFL</text><text x="72" y="26" fill="#68746e" font-size="12.5">height 604 &#183; difficulty 30,212,184,509,825,564 &#183; 1024 puzzles per block</text><rect x="18" y="44" width="148" height="76" rx="4" fill="#ffffff" stroke="#d5dbd2" stroke-width="1"/><text x="29" y="65" fill="#8a5f10" font-size="13" font-weight="700">#599</text><text x="29" y="81" fill="#121916" font-size="10">a34678a19b636e2b&#8230;</text><text x="29" y="96" fill="#1c5b52" font-size="10.5">@ram0verflow</text><text x="29" y="110" fill="#68746e" font-size="9">66 countries have alr&#8230;</text><line x1="166" y1="82.0" x2="192" y2="82.0" stroke="#b3bcb4" stroke-width="1.5" stroke-dasharray="3 3"/><rect x="192" y="44" width="148" height="76" rx="4" fill="#ffffff" stroke="#d5dbd2" stroke-width="1"/><text x="203" y="65" fill="#8a5f10" font-size="13" font-weight="700">#600</text><text x="203" y="81" fill="#121916" font-size="10">c40532c18004a746&#8230;</text><text x="203" y="96" fill="#1c5b52" font-size="10.5">@ram0verflow</text><text x="203" y="110" fill="#68746e" font-size="9">meaning exists becaus&#8230;</text><line x1="340" y1="82.0" x2="366" y2="82.0" stroke="#b3bcb4" stroke-width="1.5" stroke-dasharray="3 3"/><rect x="366" y="44" width="148" height="76" rx="4" fill="#ffffff" stroke="#d5dbd2" stroke-width="1"/><text x="377" y="65" fill="#8a5f10" font-size="13" font-weight="700">#601</text><text x="377" y="81" fill="#121916" font-size="10">f9913ec101218b68&#8230;</text><text x="377" y="96" fill="#1c5b52" font-size="10.5">@sinofool</text><text x="377" y="110" fill="#68746e" font-size="9">say, hi</text><line x1="514" y1="82.0" x2="540" y2="82.0" stroke="#b3bcb4" stroke-width="1.5" stroke-dasharray="3 3"/><rect x="540" y="44" width="148" height="76" rx="4" fill="#ffffff" stroke="#d5dbd2" stroke-width="1"/><text x="551" y="65" fill="#8a5f10" font-size="13" font-weight="700">#602</text><text x="551" y="81" fill="#121916" font-size="10">f8f2eb91446f0a24&#8230;</text><text x="551" y="96" fill="#1c5b52" font-size="10.5">@ram0verflow</text><text x="551" y="110" fill="#68746e" font-size="9">everything has a half&#8230;</text><line x1="688" y1="82.0" x2="714" y2="82.0" stroke="#b3bcb4" stroke-width="1.5" stroke-dasharray="3 3"/><rect x="714" y="44" width="148" height="76" rx="4" fill="#ffffff" stroke="#d5dbd2" stroke-width="1"/><text x="725" y="65" fill="#8a5f10" font-size="13" font-weight="700">#603</text><text x="725" y="81" fill="#121916" font-size="10">4bf6f29233bfdb9f&#8230;</text><text x="725" y="96" fill="#1c5b52" font-size="10.5">@sinofool</text><text x="725" y="110" fill="#68746e" font-size="9">meet in the middle, n&#8230;</text><line x1="862" y1="82.0" x2="888" y2="82.0" stroke="#b3bcb4" stroke-width="1.5" stroke-dasharray="3 3"/><rect x="888" y="44" width="148" height="76" rx="4" fill="#ffffff" stroke="#d5dbd2" stroke-width="1"/><text x="899" y="65" fill="#8a5f10" font-size="13" font-weight="700">#604</text><text x="899" y="81" fill="#121916" font-size="10">884c3e71e968f919&#8230;</text><text x="899" y="96" fill="#1c5b52" font-size="10.5">@sinofool</text><text x="899" y="110" fill="#68746e" font-size="9">third block, same jok&#8230;</text></svg>
