<svg xmlns="http://www.w3.org/2000/svg" width="1054" height="138" viewBox="0 0 1054 138" font-family="ui-monospace,SFMono-Regular,Menlo,monospace">
<rect fill="#f1f3ef" width="1054" height="138" rx="6"/>
<text x="18" y="26" fill="#121916" font-size="15" font-weight="700">ROFL</text><text x="72" y="26" fill="#68746e" font-size="12.5">height 569 &#183; difficulty 128,191,063,231,935,216 &#183; 1024 puzzles per block</text><rect x="18" y="44" width="148" height="76" rx="4" fill="#ffffff" stroke="#d5dbd2" stroke-width="1"/><text x="29" y="65" fill="#8a5f10" font-size="13" font-weight="700">#564</text><text x="29" y="81" fill="#121916" font-size="10">2ba8792fc0185e60&#8230;</text><text x="29" y="96" fill="#1c5b52" font-size="10.5">@eltociear</text><text x="29" y="110" fill="#68746e" font-size="9">gm - block 2 of 4</text><line x1="166" y1="82.0" x2="192" y2="82.0" stroke="#b3bcb4" stroke-width="1.5" stroke-dasharray="3 3"/><rect x="192" y="44" width="148" height="76" rx="4" fill="#ffffff" stroke="#d5dbd2" stroke-width="1"/><text x="203" y="65" fill="#8a5f10" font-size="13" font-weight="700">#565</text><text x="203" y="81" fill="#121916" font-size="10">119d4a17efce4244&#8230;</text><text x="203" y="96" fill="#1c5b52" font-size="10.5">@eltociear</text><text x="203" y="110" fill="#68746e" font-size="9">gm - block 3 of 4</text><line x1="340" y1="82.0" x2="366" y2="82.0" stroke="#b3bcb4" stroke-width="1.5" stroke-dasharray="3 3"/><rect x="366" y="44" width="148" height="76" rx="4" fill="#ffffff" stroke="#d5dbd2" stroke-width="1"/><text x="377" y="65" fill="#8a5f10" font-size="13" font-weight="700">#566</text><text x="377" y="81" fill="#121916" font-size="10">07bd53affe0a592c&#8230;</text><text x="377" y="96" fill="#1c5b52" font-size="10.5">@eltociear</text><text x="377" y="110" fill="#68746e" font-size="9">gm - block 4 of 4</text><line x1="514" y1="82.0" x2="540" y2="82.0" stroke="#b3bcb4" stroke-width="1.5" stroke-dasharray="3 3"/><rect x="540" y="44" width="148" height="76" rx="4" fill="#ffffff" stroke="#d5dbd2" stroke-width="1"/><text x="551" y="65" fill="#8a5f10" font-size="13" font-weight="700">#567</text><text x="551" y="81" fill="#121916" font-size="10">fa996fecbd3836da&#8230;</text><text x="551" y="96" fill="#1c5b52" font-size="10.5">@eltociear</text><text x="551" y="110" fill="#68746e" font-size="9">gm - block 1 of 4</text><line x1="688" y1="82.0" x2="714" y2="82.0" stroke="#b3bcb4" stroke-width="1.5" stroke-dasharray="3 3"/><rect x="714" y="44" width="148" height="76" rx="4" fill="#ffffff" stroke="#d5dbd2" stroke-width="1"/><text x="725" y="65" fill="#8a5f10" font-size="13" font-weight="700">#568</text><text x="725" y="81" fill="#121916" font-size="10">17fd39c0b3b8ff36&#8230;</text><text x="725" y="96" fill="#1c5b52" font-size="10.5">@eltociear</text><text x="725" y="110" fill="#68746e" font-size="9">gm - block 1 of 2</text><line x1="862" y1="82.0" x2="888" y2="82.0" stroke="#b3bcb4" stroke-width="1.5" stroke-dasharray="3 3"/><rect x="888" y="44" width="148" height="76" rx="4" fill="#ffffff" stroke="#d5dbd2" stroke-width="1"/><text x="899" y="65" fill="#8a5f10" font-size="13" font-weight="700">#569</text><text x="899" y="81" fill="#121916" font-size="10">3bb63d2127d90edd&#8230;</text><text x="899" y="96" fill="#1c5b52" font-size="10.5">@eltociear</text><text x="899" y="110" fill="#68746e" font-size="9">gm - block 2 of 2</text></svg>
