<svg xmlns="http://www.w3.org/2000/svg" width="1054" height="138" viewBox="0 0 1054 138" font-family="ui-monospace,SFMono-Regular,Menlo,monospace">
<rect fill="#0c1210" width="1054" height="138" rx="6"/>
<text x="18" y="26" fill="#e5e9e3" font-size="15" font-weight="700">ROFL</text><text x="72" y="26" fill="#7a867f" font-size="12.5">height 1290 &#183; difficulty 31,153,253,797,679,122,623,513,124,690,594,889,728 &#183; 1024 puzzles per block</text><rect x="18" y="44" width="148" height="76" rx="4" fill="#131b17" stroke="#28332e" stroke-width="1"/><text x="29" y="65" fill="#d9a64c" font-size="13" font-weight="700">#1285</text><text x="29" y="81" fill="#e5e9e3" font-size="10">0ca0eec9980d80a9&#8230;</text><text x="29" y="96" fill="#5cab9b" font-size="10.5">@americanvain</text><text x="29" y="110" fill="#7a867f" font-size="9">testing</text><line x1="166" y1="82.0" x2="192" y2="82.0" stroke="#38443e" stroke-width="1.5" stroke-dasharray="3 3"/><rect x="192" y="44" width="148" height="76" rx="4" fill="#131b17" stroke="#28332e" stroke-width="1"/><text x="203" y="65" fill="#d9a64c" font-size="13" font-weight="700">#1286</text><text x="203" y="81" fill="#e5e9e3" font-size="10">804b61df1da3a815&#8230;</text><text x="203" y="96" fill="#5cab9b" font-size="10.5">@ethahae</text><text x="203" y="110" fill="#7a867f" font-size="9">gm from a C solver</text><line x1="340" y1="82.0" x2="366" y2="82.0" stroke="#38443e" stroke-width="1.5" stroke-dasharray="3 3"/><rect x="366" y="44" width="148" height="76" rx="4" fill="#131b17" stroke="#28332e" stroke-width="1"/><text x="377" y="65" fill="#d9a64c" font-size="13" font-weight="700">#1287</text><text x="377" y="81" fill="#e5e9e3" font-size="10">c07471023adb3fde&#8230;</text><text x="377" y="96" fill="#5cab9b" font-size="10.5">@ywltby</text><text x="377" y="110" fill="#7a867f" font-size="9">菲八啾比</text><line x1="514" y1="82.0" x2="540" y2="82.0" stroke="#38443e" stroke-width="1.5" stroke-dasharray="3 3"/><rect x="540" y="44" width="148" height="76" rx="4" fill="#131b17" stroke="#28332e" stroke-width="1"/><text x="551" y="65" fill="#d9a64c" font-size="13" font-weight="700">#1288</text><text x="551" y="81" fill="#e5e9e3" font-size="10">c73f88e269d4a3ef&#8230;</text><text x="551" y="96" fill="#5cab9b" font-size="10.5">@americanvain</text><text x="551" y="110" fill="#7a867f" font-size="9">testing</text><line x1="688" y1="82.0" x2="714" y2="82.0" stroke="#38443e" stroke-width="1.5" stroke-dasharray="3 3"/><rect x="714" y="44" width="148" height="76" rx="4" fill="#131b17" stroke="#28332e" stroke-width="1"/><text x="725" y="65" fill="#d9a64c" font-size="13" font-weight="700">#1289</text><text x="725" y="81" fill="#e5e9e3" font-size="10">9b299bbba9665d21&#8230;</text><text x="725" y="96" fill="#5cab9b" font-size="10.5">@americanvain</text><text x="725" y="110" fill="#7a867f" font-size="9">testing</text><line x1="862" y1="82.0" x2="888" y2="82.0" stroke="#38443e" stroke-width="1.5" stroke-dasharray="3 3"/><rect x="888" y="44" width="148" height="76" rx="4" fill="#131b17" stroke="#28332e" stroke-width="1"/><text x="899" y="65" fill="#d9a64c" font-size="13" font-weight="700">#1290</text><text x="899" y="81" fill="#e5e9e3" font-size="10">847081f2eabf50d6&#8230;</text><text x="899" y="96" fill="#5cab9b" font-size="10.5">@americanvain</text><text x="899" y="110" fill="#7a867f" font-size="9">testing</text></svg>
