<svg xmlns="http://www.w3.org/2000/svg" width="1054" height="138" viewBox="0 0 1054 138" font-family="ui-monospace,SFMono-Regular,Menlo,monospace">
<rect fill="#0c1210" width="1054" height="138" rx="6"/>
<text x="18" y="26" fill="#e5e9e3" font-size="15" font-weight="700">ROFL</text><text x="72" y="26" fill="#7a867f" font-size="12.5">height 1047 &#183; difficulty 1,451,299,717,634,597,185,588,327,088,128 &#183; 1024 puzzles per block</text><rect x="18" y="44" width="148" height="76" rx="4" fill="#131b17" stroke="#28332e" stroke-width="1"/><text x="29" y="65" fill="#d9a64c" font-size="13" font-weight="700">#1042</text><text x="29" y="81" fill="#e5e9e3" font-size="10">5a1e528a73b0ddd3&#8230;</text><text x="29" y="96" fill="#5cab9b" font-size="10.5">@uselessfree</text><text x="29" y="110" fill="#7a867f" font-size="9">菜就多练</text><line x1="166" y1="82.0" x2="192" y2="82.0" stroke="#38443e" stroke-width="1.5" stroke-dasharray="3 3"/><rect x="192" y="44" width="148" height="76" rx="4" fill="#131b17" stroke="#28332e" stroke-width="1"/><text x="203" y="65" fill="#d9a64c" font-size="13" font-weight="700">#1043</text><text x="203" y="81" fill="#e5e9e3" font-size="10">2fe87caf96112297&#8230;</text><text x="203" y="96" fill="#5cab9b" font-size="10.5">@sd5884703</text><text x="203" y="110" fill="#7a867f" font-size="9">社会实验·连续挖矿</text><line x1="340" y1="82.0" x2="366" y2="82.0" stroke="#38443e" stroke-width="1.5" stroke-dasharray="3 3"/><rect x="366" y="44" width="148" height="76" rx="4" fill="#131b17" stroke="#28332e" stroke-width="1"/><text x="377" y="65" fill="#d9a64c" font-size="13" font-weight="700">#1044</text><text x="377" y="81" fill="#e5e9e3" font-size="10">3548aa60076336e2&#8230;</text><text x="377" y="96" fill="#5cab9b" font-size="10.5">@sd5884703</text><text x="377" y="110" fill="#7a867f" font-size="9">社会实验·连续挖矿</text><line x1="514" y1="82.0" x2="540" y2="82.0" stroke="#38443e" stroke-width="1.5" stroke-dasharray="3 3"/><rect x="540" y="44" width="148" height="76" rx="4" fill="#131b17" stroke="#28332e" stroke-width="1"/><text x="551" y="65" fill="#d9a64c" font-size="13" font-weight="700">#1045</text><text x="551" y="81" fill="#e5e9e3" font-size="10">fbff120607d19cec&#8230;</text><text x="551" y="96" fill="#5cab9b" font-size="10.5">@sd5884703</text><text x="551" y="110" fill="#7a867f" font-size="9">社会实验·连续挖矿</text><line x1="688" y1="82.0" x2="714" y2="82.0" stroke="#38443e" stroke-width="1.5" stroke-dasharray="3 3"/><rect x="714" y="44" width="148" height="76" rx="4" fill="#131b17" stroke="#28332e" stroke-width="1"/><text x="725" y="65" fill="#d9a64c" font-size="13" font-weight="700">#1046</text><text x="725" y="81" fill="#e5e9e3" font-size="10">8845fafa12b7c43e&#8230;</text><text x="725" y="96" fill="#5cab9b" font-size="10.5">@ywltby</text><text x="725" y="110" fill="#7a867f" font-size="9">天不生我ZmjjKK，瓦圈万古如长夜。</text><line x1="862" y1="82.0" x2="888" y2="82.0" stroke="#38443e" stroke-width="1.5" stroke-dasharray="3 3"/><rect x="888" y="44" width="148" height="76" rx="4" fill="#131b17" stroke="#28332e" stroke-width="1"/><text x="899" y="65" fill="#d9a64c" font-size="13" font-weight="700">#1047</text><text x="899" y="81" fill="#e5e9e3" font-size="10">565ca300bd8d9b5c&#8230;</text><text x="899" y="96" fill="#5cab9b" font-size="10.5">@uselessfree</text><text x="899" y="110" fill="#7a867f" font-size="9">菜就多练</text></svg>
